<svg width="226" height="55" viewBox="0 0 226 55" fill="none" xmlns="http://www.w3.org/2000/svg">
    <g clip-path="url(#clip0_32_75)">
        <mask id="mask0_32_75" style="mask-type:luminance" maskUnits="userSpaceOnUse" x="0" y="0" width="227"
            height="55">
            <path d="M226 0H0.000488281V55H226V0Z" fill="white" />
        </mask>
        <g mask="url(#mask0_32_75)">
            <path
                d="M53.114 35.6661C54.2977 32.0673 54.7161 28.2618 54.3425 24.4924C53.9688 20.7232 52.8112 17.0731 50.9436 13.7751L32.2056 13.3019V13.0682L50.2417 12.6125C48.0634 9.19288 45.1495 6.29933 41.7112 4.14151L27.2408 3.78028V3.54659L40.1013 3.22237C34.8309 0.403949 28.7765 -0.605507 22.8734 0.349905C16.9702 1.30532 11.5467 4.17245 7.44052 8.50845L23.6283 8.91739V9.15204L6.47297 9.58338C2.28645 14.4892 -0.00842063 20.7231 0.00075986 27.165C0.00075986 27.4571 0.00075986 27.7396 0.0154051 28.0257C0.0143435 28.045 0.0143435 28.0641 0.0154051 28.0832L6.47492 28.2468V28.4805L0.0398138 28.6411C0.0408538 28.6602 0.0408538 28.6795 0.0398138 28.6986C0.274528 32.9375 1.5078 37.0615 3.63961 40.7361L14.4156 41.0079V41.2415L4.10142 41.5015C6.63133 45.5521 10.1827 48.87 14.4009 51.1233C14.7368 51.3054 15.0765 51.4777 15.4212 51.6432V29.0802H18.0339C18.1344 29.0802 18.2341 29.0997 18.3269 29.1381C18.4199 29.1764 18.5044 29.2327 18.5754 29.3036C18.6465 29.3744 18.7029 29.4586 18.7414 29.5514C18.7797 29.6441 18.7994 29.7434 18.7994 29.8436V52.9957C24.2849 54.7684 30.1918 54.7684 35.6775 52.9957V29.8436C35.6773 29.7434 35.697 29.6441 35.7355 29.5514C35.7738 29.4586 35.8303 29.3744 35.9013 29.3036C35.9725 29.2327 36.0569 29.1764 36.1498 29.1381C36.2428 29.0997 36.3423 29.0802 36.443 29.0802H39.0547V51.6432C39.3944 51.4797 39.7333 51.3083 40.0642 51.1301C42.7279 49.7111 45.1367 47.8602 47.1916 45.6532L40.4215 45.4818V45.2482L47.7207 45.0641C49.9599 42.5208 51.7016 39.5815 52.8553 36.3984L43.1153 36.1521V35.9184L53.114 35.6661ZM42.8322 28.3637H11.6447L11.0813 26.1183H15.4212V23.7114H16.3058C16.6222 23.7116 16.9355 23.7738 17.2278 23.8948C17.5201 24.0156 17.7856 24.1927 18.0093 24.4159C18.233 24.6391 18.4103 24.9042 18.5314 25.1958C18.6523 25.4873 18.7145 25.7999 18.7143 26.1154H25.5489V22.9101H8.99291C8.66975 20.3445 7.14274 18.3407 7.14274 18.3407C11.6447 19.3816 27.2408 19.4624 27.2408 19.4624C27.2408 19.4624 42.834 19.3816 47.3331 18.3407C47.3331 18.3407 45.809 20.3445 45.4859 22.9101H28.926V26.1165H35.7604C35.7604 25.8007 35.8229 25.4879 35.9441 25.1961C36.0652 24.9045 36.2429 24.6394 36.4668 24.4162C36.6908 24.193 36.9567 24.0159 37.2492 23.8951C37.5418 23.7744 37.8553 23.7122 38.172 23.7123H39.0547V26.1165H43.3965L42.8322 28.3637Z"
                fill="white" />
            <path
                d="M0.000732422 53.7536L0.42642 53.6194L0.852108 53.4996L1.70348 53.26C2.27074 53.114 2.838 52.9679 3.40624 52.8463C4.54074 52.5834 5.67624 52.3643 6.81076 52.1559C9.08076 51.7498 11.3498 51.4461 13.6198 51.1998C18.1448 50.7303 22.6915 50.5002 27.2408 50.5103C31.7884 50.5099 36.3329 50.7451 40.8559 51.2154C43.126 51.4637 45.395 51.7665 47.6651 52.1715C48.7995 52.3788 49.935 52.597 51.0696 52.8579C51.6367 52.9835 52.204 53.1247 52.7722 53.2698L53.6237 53.5054L54.0494 53.6242L54.475 53.7576V54.1364L47.666 54.2337L40.857 54.2677L27.2408 54.3252L13.6227 54.2619L6.81369 54.2288L0.000732422 54.1364V53.7536Z"
                fill="white" />
            <path
                d="M209.615 20.9476L208.936 20.2601H203.509L202.824 20.9476V45.7131C202.824 51.9047 207.574 54.6562 212.323 54.6562H225.322L226 53.9689V49.1521L225.322 48.4646H212.329C210.971 48.4646 209.615 47.7763 209.615 45.7131V20.9476Z"
                fill="white" />
            <path
                d="M185.722 19.9155C180.974 19.9155 177.581 21.9796 175.546 24.7313H174.865C173.507 22.6671 171.472 19.9155 166.045 19.9155C165.602 19.9155 162.864 19.9691 162.864 19.9691L162.181 20.6564V25.485L162.864 26.1723H165.217C169.537 26.6592 170.116 29.8723 170.116 33.6696V54.3116L170.794 54.9991H176.222L176.9 54.3116V35.0522C176.9 29.549 179.614 26.11 184.363 26.11C189.791 26.11 190.469 29.5501 190.469 33.6774V54.3193L191.153 55.0068H196.58L197.258 54.3193V33.6774C197.255 26.1071 195.22 19.9155 185.722 19.9155Z"
                fill="white" />
            <path
                d="M153.239 20.6039L152.56 21.2923V54.3116L153.239 55H158.666L159.345 54.3116V21.2923L158.666 20.6039H153.239Z"
                fill="white" />
            <path
                d="M129.113 53.9787L128.618 54.4723H122.671L122.175 53.9787V30.257L122.671 29.7623H128.617L129.113 30.257V53.9787Z"
                fill="white" />
            <path
                d="M133.294 35.1983L132.798 34.7047V29.7623L133.294 29.2676H136.05C141.997 29.2676 145.466 33.2218 145.466 39.1514V53.9787L144.97 54.4723H139.023L138.528 53.9787V39.6471C138.528 37.1759 137.537 35.1994 134.563 35.1994L133.294 35.1983Z"
                fill="white" />
            <path
                d="M94.105 44.5885C93.9852 43.7702 93.925 42.9443 93.9253 42.1173C93.9253 35.1983 97.8904 29.2647 105.819 29.2647C113.748 29.2647 117.712 35.1954 117.712 42.1173V44.0938L117.217 44.5876H101.857M109.786 47.5533L110.282 47.0587H116.229L116.725 47.5533M110.281 39.1514C110.281 38.6569 109.785 35.1974 105.821 35.1974C101.857 35.1974 101.361 38.6569 101.361 39.1514L101.856 39.6461H109.785L110.281 39.1514Z"
                fill="white" />
            <path
                d="M116.724 47.5544C116.228 50.5192 113.751 54.9669 106.317 54.9669C98.8834 54.9669 95.4486 50.5192 94.9526 47.5544L95.4486 47.0597H102.113L102.609 47.5544C103.104 48.5426 104.83 49.0372 106.319 49.0372C107.806 49.0372 109.293 48.5426 109.788 47.5544"
                fill="white" />
            <path d="M88.4776 25.8092H65.1869L64.6909 25.3145V20.3732L65.1869 19.8785H88.4776L88.9736 20.3732V25.3145"
                fill="white" />
            <path
                d="M72.6196 48.048V48.5425H89.4695L89.9644 49.0362V53.9785L89.4695 54.4723H64.6907L64.1958 53.9785V48.5425L64.6907 47.5533L70.5049 39.8029L78.4143 29.6445L78.9093 29.1498H85.7408L86.2358 29.6445L72.6196 48.048Z"
                fill="white" />
        </g>
    </g>
    <defs>
        <clipPath id="clip0_32_75">
            <rect width="226" height="55" fill="white" />
        </clipPath>
    </defs>
</svg>
