<svg width="80" height="80" viewBox="0 0 80 80" fill="none" xmlns="http://www.w3.org/2000/svg">
    <g clip-path="url(#clip0_46_27)">
        <path
            d="M77.2938 51.8782C79.0164 46.6433 79.6251 41.108 79.0813 35.6255C78.5376 30.1431 76.8529 24.8338 74.1351 20.0365L46.8664 19.3482V19.0083L73.1136 18.3455C69.9436 13.3715 65.7033 9.16272 60.6998 6.02408L39.6416 5.49865V5.15874L58.3567 4.68712C50.6869 0.58762 41.8762 -0.880682 33.2856 0.509009C24.6949 1.8987 16.8024 6.06905 10.8268 12.376L34.3844 12.9708V13.3121L9.41878 13.9395C3.32631 21.0752 -0.0133201 30.1429 3.99294e-05 39.5129C3.99294e-05 39.9378 3.99289e-05 40.3484 0.0213525 40.7649C0.0198077 40.7927 0.0198077 40.8204 0.0213525 40.8484L9.42162 41.0862V41.4262L0.0568736 41.66C0.0583871 41.6878 0.0583871 41.7155 0.0568736 41.7435C0.398442 47.9091 2.19318 53.9078 5.29551 59.2527L20.9773 59.6478V59.9875L5.96758 60.3658C9.64925 66.2578 14.8175 71.0835 20.956 74.3613C21.4448 74.626 21.9392 74.8766 22.4409 75.1175V42.2987H26.2429C26.3893 42.2984 26.5342 42.3271 26.6696 42.3827C26.8047 42.4384 26.9276 42.5202 27.0311 42.6233C27.1344 42.7267 27.2167 42.8491 27.2724 42.9838C27.3284 43.1186 27.3571 43.2631 27.3569 43.4089V77.0846C35.34 79.6631 43.936 79.6631 51.9189 77.0846V43.4089C51.9187 43.2631 51.9473 43.1186 52.0033 42.9838C52.0593 42.8491 52.1413 42.7267 52.2449 42.6233C52.3482 42.5202 52.4711 42.4384 52.6064 42.3827C52.7416 42.3271 52.8864 42.2984 53.0329 42.2987H56.8336V75.1175C57.328 74.8795 57.8211 74.6302 58.3027 74.3711C62.1793 72.3071 65.6844 69.6149 68.6749 66.4046L58.8229 66.1555V65.8155L69.4451 65.5478C72.7038 61.8484 75.2382 57.5731 76.9171 52.9431L62.7429 52.5849V52.2449L77.2938 51.8782ZM62.3309 41.2562H16.945L16.1252 37.9904H22.4409V34.4893H23.728C24.1887 34.4895 24.6444 34.5802 25.0698 34.756C25.4953 34.9318 25.8818 35.1895 26.2071 35.5142C26.5327 35.8389 26.7909 36.2242 26.9669 36.6484C27.1429 37.0727 27.2336 37.5271 27.2333 37.9862H37.1791V33.3238H13.086C12.6157 29.592 10.3935 26.6773 10.3935 26.6773C16.945 28.1913 39.6416 28.3089 39.6416 28.3089C39.6416 28.3089 62.3338 28.1913 68.8809 26.6773C68.8809 26.6773 66.6631 29.592 66.1927 33.3238H42.0938V37.9875H52.0398C52.0398 37.5282 52.1304 37.0733 52.3069 36.6491C52.4833 36.2247 52.7418 35.8391 53.0678 35.5144C53.3936 35.1898 53.7804 34.9322 54.2062 34.7567C54.632 34.5809 55.0884 34.4907 55.5491 34.4909H56.8336V37.9875H63.152L62.3309 41.2562Z"
            fill="#4D1D93" />
    </g>
    <defs>
        <clipPath id="clip0_46_27">
            <rect width="80" height="80" />
        </clipPath>
    </defs>
</svg>
